<?xml version="1.0" encoding="UTF-8"?><svg id="Layer_2" xmlns="http://www.w3.org/2000/svg" viewBox="0 0 344.65 297.54"><defs><style>.cls-1{fill:#985744;}</style></defs><g id="Layer_2-2"><path class="cls-1" d="m129.71,154.64l-56.41,51.35c-13.92,12.67-21.13,31.38-18.43,50.01,1.54,10.63,5.97,19.57,13.19,26.89,12.13,12.29,29.95,17.12,46.83,13.47l19.3-4.17c24.94-5.39,50.73-5.59,75.75-.59l21.88,4.38c19.61,3.92,40.03-3.37,52.02-19.38,4.77-6.37,7.79-13.45,9.01-21.27,2.47-15.85-3.37-31.86-14.93-42.98l-59.1-56.83c-9.52-9.16-21.5-15.51-34.53-17.66-8.22-1.36-16.44-1.09-24.67.81-11.18,2.59-21.42,8.25-29.91,15.98Z"/><ellipse class="cls-1" cx="120.21" cy="55.39" rx="41.21" ry="55.39"/><ellipse class="cls-1" cx="225.98" cy="55.39" rx="41.21" ry="55.39"/><ellipse class="cls-1" cx="310" cy="124.76" rx="47" ry="33.25" transform="translate(100.14 384.8) rotate(-73.02)"/><ellipse class="cls-1" cx="34.65" cy="124.76" rx="33.25" ry="47" transform="translate(-34.93 15.56) rotate(-16.98)"/></g></svg>