<?xml version="1.0" encoding="UTF-8"?><svg id="Layer_2" xmlns="http://www.w3.org/2000/svg" viewBox="0 0 242.22 165.85"><defs><style>.cls-1{fill:#fff;}</style></defs><g id="Layer_3"><path class="cls-1" d="m0,106.98c1.11,36.35,20.76,50.28,45.96,57.49,26.77,4.28,45.12-1.76,59.13-13.14-.69-10.24-3.64-19.72-8.89-28.43-12.26-20.34-35.19-31.6-58.93-31.22-16.42.26-29.82,4.18-37.26,15.31Z"/><path class="cls-1" d="m242.22,106.98c-1.11,36.35-20.76,50.28-45.96,57.49-26.77,4.28-45.12-1.76-59.13-13.14.69-10.24,3.64-19.72,8.89-28.43,12.26-20.34,35.19-31.6,58.93-31.22,16.42.26,29.82,4.18,37.26,15.31Z"/><path class="cls-1" d="m123.16,120.51c-17.1-6.66-28.69-21.79-35.58-44.14-3.68-11.92-4.71-24.67-1.54-36.74C91.04,20.53,103.99,7.5,123.16,0c7.32,5.5,13.22,11.29,17.93,17.33,19.64,28.72,19.02,59.85-.49,84.95-4.76,6.13-10.56,12.2-17.44,18.22Z"/></g></svg>