<?xml version="1.0" encoding="utf-8"?>
<!-- Generator: Adobe Illustrator 27.3.1, SVG Export Plug-In . SVG Version: 6.00 Build 0)  -->
<svg version="1.1" id="Layer_2_00000138551270132537227720000006329089941723143845_"
	 xmlns="http://www.w3.org/2000/svg" xmlns:xlink="http://www.w3.org/1999/xlink" x="0px" y="0px" viewBox="0 0 242.2 165.9"
	 style="enable-background:new 0 0 242.2 165.9;" xml:space="preserve">
<style type="text/css">
	.st0{fill:#985744;}
</style>
<g id="Layer_3">
	<path class="st0" d="M0,107c1.1,36.3,20.8,50.3,46,57.5c26.8,4.3,45.1-1.8,59.1-13.1c-0.7-10.2-3.6-19.7-8.9-28.4
		C83.9,102.6,61,91.3,37.3,91.7C20.8,91.9,7.4,95.9,0,107L0,107z"/>
	<path class="st0" d="M242.2,107c-1.1,36.3-20.8,50.3-46,57.5c-26.8,4.3-45.1-1.8-59.1-13.1c0.7-10.2,3.6-19.7,8.9-28.4
		c12.3-20.3,35.2-31.6,58.9-31.2C221.4,91.9,234.8,95.9,242.2,107L242.2,107z"/>
	<path class="st0" d="M123.2,120.5c-17.1-6.7-28.7-21.8-35.6-44.1c-3.7-11.9-4.7-24.7-1.5-36.7C91,20.5,104,7.5,123.2,0
		c7.3,5.5,13.2,11.3,17.9,17.3c19.6,28.7,19,59.8-0.5,84.9C135.8,108.4,130,114.5,123.2,120.5L123.2,120.5z"/>
</g>
</svg>
